<svg width="10.365mm" height="10.097mm" version="1.1" viewBox="0 0 10.365 10.097" xmlns="http://www.w3.org/2000/svg">
 <g transform="translate(-99.748 -143.4)">
  <path d="m103.89 143.48c-1.3769 0.30697-2.5055 1.0699-3.282 2.2256-1.3588 2.036-1.088 4.7673 0.64557 6.5098 0.51916 0.52367 1.3092 1.0293 1.9051 1.2234 0.2212 0.0722 0.24829 0.0722 0.34761 5e-3 0.10835-0.0722 0.11286-0.0903 0.11286-0.60944v-0.53269l-0.39727 0.0225c-0.46499 0.0225-0.82614-0.0587-1.0428-0.24376-0.0768-0.0632-0.22572-0.2799-0.32956-0.47853-0.17155-0.33406-0.29795-0.48754-0.65008-0.79906-0.11737-0.10383-0.12188-0.10835-0.0406-0.16704 0.19413-0.14446 0.58688-4e-3 0.83517 0.29345 0.43339 0.52819 0.60042 0.66813 0.84872 0.72232 0.2212 0.0451 0.42435 0.0271 0.73134-0.0632 0.0406-0.0135 0.0948-0.10835 0.12188-0.2167 0.0271-0.10382 0.0993-0.26185 0.15801-0.34761l0.10835-0.158-0.36567-0.0722c-0.76745-0.15801-1.2415-0.43338-1.553-0.90289-0.28892-0.43338-0.38372-0.80809-0.38824-1.5078 0-0.65911 0.0722-0.92999 0.35664-1.3002 0.12641-0.16253 0.13995-0.21219 0.10383-0.30699-0.0677-0.16251-0.0496-0.84871 0.0226-1.0564 0.0587-0.15348 0.0903-0.18058 0.21218-0.1941 0.20315-0.0225 0.58236 0.10835 0.96609 0.32504l0.32955 0.1896 0.28892-0.0677c0.41082-0.0948 1.6433-0.0903 2.0134 0l0.2799 0.0722 0.26183-0.15801c0.34762-0.20764 0.79003-0.37018 1.0112-0.37018 0.17606 0 0.17606 5e-3 0.24829 0.23477 0.0768 0.26633 0.0903 0.74941 0.0226 0.97962-0.0361 0.13544-0.0271 0.17608 0.0722 0.307 0.49207 0.65005 0.54624 1.729 0.13092 2.6138-0.2799 0.58238-0.87129 0.98867-1.6658 1.1376l-0.37921 0.0723 0.13994 0.24826 0.14447 0.25283 0.0135 1.0067 0.0181 1.0067 0.11287 0.0722c0.10383 0.0677 0.1264 0.0677 0.34309-9e-3 0.36116-0.12189 0.97963-0.45595 1.3182-0.71329 2.0134-1.5078 2.6635-4.212 1.5484-6.4601-0.6546-1.3227-1.8916-2.3385-3.3091-2.7177-0.61848-0.16253-1.7832-0.19865-2.3701-0.0677z" fill="#fff"/>
 </g>
</svg>
