<svg width="10.359mm" height="10.358mm" version="1.1" viewBox="0 0 10.359 10.358" xmlns="http://www.w3.org/2000/svg">
 <g transform="translate(-169.86 -140.49)">
  <path transform="matrix(.26458 0 0 .26458 51.052 -141.48)" d="m482.41 1099.1h-5.801v-9.0846c0-2.1663-0.0387-4.9548-3.0171-4.9548-3.0214 0-3.4836 2.36-3.4836 4.7973v9.2414h-5.801v-18.681h5.5689v2.553h0.078c1.1356-1.9415 3.2469-3.101 5.4946-3.0177 5.8795 0 6.9636 3.8674 6.9636 8.8985zm-24.648-21.236c-2.9993 7e-4 -4.5015-3.6251-2.3813-5.7461 2.1202-2.1211 5.7466-0.6202 5.7471 2.3793 3.2e-4 1.859-1.5066 3.3665-3.3658 3.3668m2.9005 21.236h-5.807v-18.682h5.807zm24.64-33.355h-33.362c-1.5767-0.035-2.8698 1.245-2.889 2.8216v33.5c0.0173 1.5776 1.3115 2.842 2.889 2.8251h33.362c1.5806 0.034 2.8786-1.2444 2.9005-2.8251v-33.502c-0.0242-1.5797-1.3206-2.8427-2.9005-2.8217" fill="#fff" stroke-width=".60427"/>
 </g>
</svg>
